<?xml version="1.0"?>
<svg xmlns="http://www.w3.org/2000/svg" xmlns:xlink="http://www.w3.org/1999/xlink" xmlns:svgjs="http://svgjs.com/svgjs" version="1.1" width="512" height="512" x="0" y="0" viewBox="0 0 512.006 512.006" style="enable-background:new 0 0 512 512" xml:space="preserve" class=""><g><g xmlns="http://www.w3.org/2000/svg" id="XMLID_2107_"><g id="XMLID_777_"><path id="XMLID_1087_" d="m263.119 342.118-7.308-5.498c-6.151-4.626-13.967-5.888-21.063-3.664-7.096-2.222-14.912-.962-21.065 3.665l-7.307 5.497c-2.257 1.698-3.691 4.271-3.947 7.085-.256 2.813.689 5.603 2.604 7.681l2.773 3.011c6.915 7.508 16.734 11.813 26.941 11.813s20.026-4.306 26.941-11.813l2.773-3.011c1.914-2.078 2.859-4.868 2.604-7.681s-1.688-5.387-3.946-7.085z" fill="#ffffff" data-original="#000000" style="" class=""/><path id="XMLID_1091_" d="m166.83 280.397c-.002 0-.005 0-.007 0-2.292.005-4.556-.132-6.803-.396-5.481-.649-10.455 3.276-11.102 8.762-.646 5.485 3.277 10.455 8.762 11.101 3.007.354 6.067.534 9.101.534h.057c5.522-.004 9.996-4.484 9.992-10.007-.004-5.521-4.481-9.994-10-9.994z" fill="#ffffff" data-original="#000000" style="" class=""/><path id="XMLID_1093_" d="m214.705 283.804c2.387-1.884 4.692-3.934 6.854-6.095 3.905-3.905 3.906-10.236.002-14.142-3.905-3.905-10.237-3.906-14.143-.001-1.61 1.61-3.327 3.137-5.104 4.538-4.335 3.421-5.076 9.709-1.654 14.045 1.973 2.501 4.9 3.806 7.856 3.806 2.169 0 4.354-.703 6.189-2.151z" fill="#ffffff" data-original="#000000" style="" class=""/><path id="XMLID_1094_" d="m234.6 175.163c5.522 0 10-4.477 10-10v-7.83c0-5.523-4.478-10-10-10s-10 4.477-10 10v7.83c0 5.523 4.478 10 10 10z" fill="#ffffff" data-original="#000000" style="" class=""/><path id="XMLID_1095_" d="m234.6 229.163c5.522 0 10-4.477 10-10v-10c0-5.523-4.478-10-10-10s-10 4.477-10 10v10c0 5.523 4.478 10 10 10z" fill="#ffffff" data-original="#000000" style="" class=""/><path id="XMLID_1098_" d="m487.671 428.136-104.859-104.859c41.426-35.352 64.98-84.088 64.98-135.208 0-43.193-16.995-85.373-47.854-118.771-30.153-32.633-72.277-55.636-118.611-64.772-5.416-1.069-10.677 2.458-11.746 7.876-1.068 5.418 2.459 10.677 7.877 11.746 87.11 17.176 150.335 86.114 150.335 163.92 0 39.941-16.413 78.348-45.722 108.51.825-6.743 1.266-13.546 1.266-20.382v-56.092c0-7.333-.776-14.527-2.26-21.491 8.735-10.05 15.213-22.036 18.837-34.951 1.492-5.317-1.608-10.838-6.927-12.33-5.322-1.497-10.838 1.609-12.329 6.926-1.712 6.101-4.244 11.93-7.48 17.321-9.429-19.465-25.021-35.689-45.099-45.903-1.022-.52-2.055-1.009-3.084-1.511 6.411-11.645 9.765-24.662 9.765-38.25 0-5.523-4.478-10-10-10s-10 4.477-10 10c0 10.836-2.836 21.187-8.259 30.32-46.277-17.172-97.523-17.171-143.801 0-5.423-9.134-8.26-19.484-8.26-30.32 0-5.523-4.478-10-10-10s-10 4.477-10 10c0 13.588 3.354 26.605 9.765 38.25-1.029.502-2.062.991-3.084 1.511-20.078 10.214-35.67 26.438-45.099 45.903-3.236-5.391-5.768-11.22-7.48-17.321-1.492-5.317-7.015-8.419-12.329-6.926-5.318 1.492-8.419 7.012-6.927 12.33 3.624 12.915 10.102 24.901 18.837 34.951-1.484 6.964-2.26 14.157-2.26 21.491v56.092c0 6.895.428 13.698 1.246 20.388-29.323-30.146-45.702-68.475-45.702-108.517 0-77.808 63.227-146.746 150.338-163.921 5.418-1.068 8.945-6.327 7.877-11.746-1.069-5.418-6.32-8.948-11.746-7.876-46.335 9.135-88.459 32.138-118.613 64.771-30.86 33.397-47.855 75.578-47.855 118.771 0 54.607 26.71 106.195 73.36 141.971 12.839 37.643 38.792 69.416 72.74 89.576v6.114c0 30.804-19.771 57.617-49.2 66.721-5.275 1.632-8.229 7.233-6.598 12.509 1.328 4.292 5.281 7.047 9.551 7.047.979 0 1.975-.145 2.959-.449 18.463-5.712 34.285-16.954 45.755-32.508 10.684-14.488 16.67-31.478 17.442-49.356 14.374 6.1 29.818 10.268 46.036 12.144.381.044.765.066 1.148.066s.768-.022 1.148-.066c16.09-1.861 31.679-6.056 46.321-12.32.74 17.943 6.733 34.997 17.451 49.532 11.471 15.555 27.292 26.796 45.755 32.508.985.305 1.98.449 2.959.449 4.269 0 8.223-2.755 9.551-7.047 1.632-5.276-1.322-10.876-6.598-12.509-29.428-9.104-49.199-35.917-49.199-66.721v-6.366c16.4-9.783 31.128-22.377 43.423-37.32l94.175 94.175c1.876 1.875 4.419 2.929 7.071 2.929s5.195-1.054 7.071-2.929l33.94-33.941c3.907-3.902 3.907-10.234.002-14.139zm-169.853-107.203-15.477-30.044 30.044 15.477zm-73.218 99.296v-15.732c0-5.523-4.478-10-10-10s-10 4.477-10 10v15.75c-68.431-13.248-118.737-73.3-118.737-144.049v-56.092c0-30.874 16.984-58.693 44.326-72.601 52.854-26.885 115.966-26.887 168.821 0 27.342 13.908 44.326 41.727 44.326 72.601v56.092c0 8.548-.75 17.04-2.21 25.394l-4.912-4.912c-.731-.731-1.572-1.345-2.492-1.819l-70.004-36.063c-3.864-1.991-8.574-1.257-11.65 1.818-3.075 3.075-3.81 7.785-1.818 11.651l36.063 70.003c.474.919 1.087 1.76 1.818 2.492l23.072 23.072c-21.747 27.161-52.541 45.755-86.603 52.395zm202.059 34.777-117.315-117.315 19.799-19.799 117.314 117.315z" fill="#ffffff" data-original="#000000" style="" class=""/><path id="XMLID_1223_" d="m234.603 20c2.63 0 5.21-1.07 7.07-2.93 1.86-1.87 2.93-4.44 2.93-7.07 0-2.64-1.069-5.21-2.93-7.07-1.86-1.87-4.44-2.93-7.07-2.93-2.64 0-5.21 1.06-7.069 2.93-1.87 1.86-2.931 4.44-2.931 7.07s1.061 5.2 2.931 7.07c1.859 1.86 4.439 2.93 7.069 2.93z" fill="#ffffff" data-original="#000000" style="" class=""/></g></g></g></svg>
