<?xml version="1.0"?>
<svg xmlns="http://www.w3.org/2000/svg" xmlns:xlink="http://www.w3.org/1999/xlink" xmlns:svgjs="http://svgjs.com/svgjs" version="1.1" width="512" height="512" x="0" y="0" viewBox="0 0 512 512" style="enable-background:new 0 0 512 512" xml:space="preserve" class=""><g><path xmlns="http://www.w3.org/2000/svg" d="m101.6 222.693a70.084 70.084 0 0 0 78.07 2.006l2.813-1.777a8 8 0 0 0 -8.541-13.529l-2.814 1.777a54.133 54.133 0 0 1 -60.3-1.548 8 8 0 1 0 -9.226 13.071z" fill="#ffffff" data-original="#000000" style="" class=""/><path xmlns="http://www.w3.org/2000/svg" d="m333.6 222.693a70.086 70.086 0 0 0 78.073 2l2.812-1.777a8 8 0 0 0 -8.545-13.527l-2.811 1.776a54.133 54.133 0 0 1 -60.3-1.548 8 8 0 1 0 -9.226 13.071z" fill="#ffffff" data-original="#000000" style="" class=""/><path xmlns="http://www.w3.org/2000/svg" d="m495.459 215.672a59.708 59.708 0 0 0 -104.767-34.989 24.407 24.407 0 0 1 -36.951 0 59.668 59.668 0 0 0 -97.524 10.344 59.668 59.668 0 0 0 -97.525-10.343 24.408 24.408 0 0 1 -36.952 0 59.707 59.707 0 0 0 -104.765 34.989c-.655 9.675-.975 31.098-.975 32.327v239.193a8 8 0 0 0 8 8h464a8 8 0 0 0 8-8v-239.193c0-.893.133-22.363-.541-32.328zm-230.521 1.079a43.708 43.708 0 0 1 76.692-25.613 40.407 40.407 0 0 0 61.174 0 43.708 43.708 0 0 1 76.696 25.613 219.1 219.1 0 0 1 -11.528 86.409h-51.935-.039-.039-79.922-.039-.039-59.492a219.121 219.121 0 0 1 -11.529-86.409zm124.9 186.7-26.573 6.649-1.2-7.207 29.08-7.27zm-2.868 17.21-1.749 10.5h-18.446l-.871-5.23zm-28.746-40.813 37.094-9.274-1.306 7.834-34.587 8.647zm39.962-26.484-42.6 10.651-2.143-12.857h45.112zm9.814-18.206h-64v-16h64zm-375.062-118.407a43.706 43.706 0 0 1 76.691-25.612 40.409 40.409 0 0 0 61.175 0 43.707 43.707 0 0 1 76.696 25.612 220.15 220.15 0 0 1 -29.6 126.249 269.682 269.682 0 0 0 -30.355 77.486l-4.045 18.2a9.756 9.756 0 0 1 -19.28-2.117v-62.242a24 24 0 1 0 -48 0v62.243a9.756 9.756 0 0 1 -19.28 2.117l-4.046-18.2a269.678 269.678 0 0 0 -30.359-77.487 220.155 220.155 0 0 1 -29.597-126.249zm-.938 262.442v-163.021a238.014 238.014 0 0 0 16.716 34.887 253.708 253.708 0 0 1 28.555 72.9l4.046 18.2a25.757 25.757 0 0 0 50.9-5.587v-62.245a8 8 0 0 1 16 0v62.243a25.756 25.756 0 0 0 50.9 5.588l4.045-18.2a253.741 253.741 0 0 1 28.557-72.895 236.955 236.955 0 0 0 24.576-59.35q2.967 11.2 7.032 22.23a8 8 0 0 0 7.5 5.221h57.173v24a8 8 0 0 0 8 8h1.223l2.84 17.043a7.993 7.993 0 0 0 2.47 14.818l1.321 7.929-1.794.448a8 8 0 1 0 3.88 15.523l.553-.138 1.2 7.207-5.634 1.409a8 8 0 1 0 3.88 15.522l4.393-1.1 1.775 10.653a8 8 0 0 0 7.893 6.68h32a8 8 0 0 0 7.892-6.684l4.007-24.045 6.041-1.51a8 8 0 0 0 -3.179-15.66l1.312-7.873 1.867-.467a8 8 0 0 0 .759-15.291l1.624-9.745a7.982 7.982 0 0 0 1.948-11.685l.506-3.04h1.223a8 8 0 0 0 8-8v-24h49.608a7.993 7.993 0 0 0 6.392-3.205v163.24z" fill="#ffffff" data-original="#000000" style="" class=""/><path xmlns="http://www.w3.org/2000/svg" d="m247.998 359.158h16v16h-16z" fill="#ffffff" data-original="#000000" style="" class=""/><path xmlns="http://www.w3.org/2000/svg" d="m55.998 439.158h16v16h-16z" fill="#ffffff" data-original="#000000" style="" class=""/><path xmlns="http://www.w3.org/2000/svg" d="m127.998 303.158h16v16h-16z" fill="#ffffff" data-original="#000000" style="" class=""/><path xmlns="http://www.w3.org/2000/svg" d="m175.998 319.158h16v16h-16z" fill="#ffffff" data-original="#000000" style="" class=""/><path xmlns="http://www.w3.org/2000/svg" d="m87.998 335.158h16v16h-16z" fill="#ffffff" data-original="#000000" style="" class=""/><path xmlns="http://www.w3.org/2000/svg" d="m295.998 335.158h16v16h-16z" fill="#ffffff" data-original="#000000" style="" class=""/><path xmlns="http://www.w3.org/2000/svg" d="m295.998 383.158h16v16h-16z" fill="#ffffff" data-original="#000000" style="" class=""/><path xmlns="http://www.w3.org/2000/svg" d="m247.998 415.158h16v16h-16z" fill="#ffffff" data-original="#000000" style="" class=""/><path xmlns="http://www.w3.org/2000/svg" d="m295.998 431.158h16v16h-16z" fill="#ffffff" data-original="#000000" style="" class=""/><path xmlns="http://www.w3.org/2000/svg" d="m439.998 335.158h16v16h-16z" fill="#ffffff" data-original="#000000" style="" class=""/><path xmlns="http://www.w3.org/2000/svg" d="m439.998 383.158h16v16h-16z" fill="#ffffff" data-original="#000000" style="" class=""/><path xmlns="http://www.w3.org/2000/svg" d="m439.998 431.158h16v16h-16z" fill="#ffffff" data-original="#000000" style="" class=""/><path xmlns="http://www.w3.org/2000/svg" d="m423.998 127.992h16v16h-16z" fill="#ffffff" data-original="#000000" style="" class=""/><path xmlns="http://www.w3.org/2000/svg" d="m423.998 95.992h16v16h-16z" fill="#ffffff" data-original="#000000" style="" class=""/><path xmlns="http://www.w3.org/2000/svg" d="m407.998 111.992h16v16h-16z" fill="#ffffff" data-original="#000000" style="" class=""/><path xmlns="http://www.w3.org/2000/svg" d="m439.998 111.992h16v16h-16z" fill="#ffffff" data-original="#000000" style="" class=""/><path xmlns="http://www.w3.org/2000/svg" d="m319.998 87.992h16v16h-16z" fill="#ffffff" data-original="#000000" style="" class=""/><path xmlns="http://www.w3.org/2000/svg" d="m319.998 39.992h16v16h-16z" fill="#ffffff" data-original="#000000" style="" class=""/><path xmlns="http://www.w3.org/2000/svg" d="m295.998 63.992h16v16h-16z" fill="#ffffff" data-original="#000000" style="" class=""/><path xmlns="http://www.w3.org/2000/svg" d="m343.998 63.992h16v16h-16z" fill="#ffffff" data-original="#000000" style="" class=""/></g></svg>
